<?xml version="1.0" standalone="no"?>
<!DOCTYPE svg PUBLIC "-//W3C//DTD SVG 20010904//EN"
 "http://www.w3.org/TR/2001/REC-SVG-20010904/DTD/svg10.dtd">
<svg version="1.0" xmlns="http://www.w3.org/2000/svg"
 width="64.000000pt" height="64.000000pt" viewBox="0 0 64.000000 64.000000"
 preserveAspectRatio="xMidYMid meet">

<g transform="translate(0.000000,64.000000) scale(0.100000,-0.100000)"
fill="#000000" stroke="none">
<path d="M223 564 c-56 -28 -63 -58 -63 -281 0 -141 3 -202 12 -211 16 -16 80
-16 96 0 8 8 12 45 12 100 l0 88 84 0 c95 0 116 11 116 60 0 49 -21 60 -116
60 l-84 0 0 40 0 40 84 0 c95 0 116 11 116 60 0 50 -20 60 -128 60 -68 0 -107
-5 -129 -16z m237 -44 l0 -39 -97 -3 -98 -3 0 -55 0 -55 98 -3 97 -3 0 -39 0
-40 -100 0 -100 0 0 -100 0 -100 -40 0 -40 0 0 214 0 213 26 27 c26 25 31 26
140 26 l114 0 0 -40z"/>
</g>
</svg>
